<svg width="33" height="33" viewBox="0 0 33 33" fill="none" xmlns="http://www.w3.org/2000/svg">
<path d="M17.5857 10.2857C17.5857 9.45729 16.9141 8.78571 16.0857 8.78571C15.2573 8.78571 14.5857 9.45729 14.5857 10.2857H17.5857ZM14.5857 23.5429C14.5857 24.3713 15.2573 25.0429 16.0857 25.0429C16.9141 25.0429 17.5857 24.3713 17.5857 23.5429H14.5857ZM9.45714 15.4143C8.62872 15.4143 7.95714 16.0859 7.95714 16.9143C7.95714 17.7427 8.62872 18.4143 9.45714 18.4143V15.4143ZM22.7143 18.4143C23.5427 18.4143 24.2143 17.7427 24.2143 16.9143C24.2143 16.0859 23.5427 15.4143 22.7143 15.4143V18.4143ZM29.5 16.5C29.5 23.6797 23.6797 29.5 16.5 29.5V32.5C25.3366 32.5 32.5 25.3366 32.5 16.5H29.5ZM16.5 29.5C9.3203 29.5 3.5 23.6797 3.5 16.5H0.5C0.5 25.3366 7.66344 32.5 16.5 32.5V29.5ZM3.5 16.5C3.5 9.3203 9.3203 3.5 16.5 3.5V0.5C7.66344 0.5 0.5 7.66344 0.5 16.5H3.5ZM16.5 3.5C23.6797 3.5 29.5 9.3203 29.5 16.5H32.5C32.5 7.66344 25.3366 0.5 16.5 0.5V3.5ZM14.5857 10.2857V16.9143H17.5857V10.2857H14.5857ZM14.5857 16.9143V23.5429H17.5857V16.9143H14.5857ZM9.45714 18.4143H16.0857V15.4143H9.45714V18.4143ZM16.0857 18.4143H22.7143V15.4143H16.0857V18.4143Z" fill="#366AF0"/>
</svg>
